<svg xmlns="http://www.w3.org/2000/svg" width="1080" height="1080" viewBox="0 0 1080 1080" version="1.1">
	<path d="M 670 382.935 C 660.955 385.696, 650.452 394.100, 638.808 407.891 C 622.152 427.620, 607.103 451.674, 591.506 483.500 C 579.504 507.990, 572.616 524.408, 565.495 545.500 C 556.830 571.162, 554.612 576.907, 549.279 587.500 C 540.473 604.991, 504.588 646.538, 479.861 667.873 C 475.450 671.678, 465.118 678, 463.309 678 C 461.279 678, 461.484 643.815, 463.563 635.644 C 469.405 612.679, 481.885 592.281, 514.357 552.626 C 521.506 543.896, 530.456 532.871, 534.246 528.126 C 542.320 518.018, 558.833 493.346, 568.464 477 C 575.340 465.330, 589.667 436.804, 592.321 429.500 C 593.120 427.300, 595.175 421.775, 596.887 417.221 C 601.353 405.345, 601.151 403.643, 594.560 397.538 C 587.151 390.677, 581.073 387.576, 576.658 388.404 C 564.328 390.718, 535.732 419.638, 505.867 460 C 490.497 480.773, 479.863 497.930, 466.768 523.085 C 438.286 577.798, 426.327 624.262, 431.044 661.882 C 432.332 672.153, 434.599 677.117, 441.440 684.649 C 448.866 692.824, 458.878 698.115, 468.177 698.781 C 474.857 699.259, 475.260 699.153, 480.447 695.581 C 486.518 691.400, 490.656 687.101, 507.026 667.970 C 524.102 648.014, 527.606 643.734, 528.899 641.250 C 530.393 638.379, 533 638.314, 533 641.148 C 533 642.329, 531.159 650.991, 528.908 660.398 C 524.304 679.644, 522.649 698.377, 524.941 705.322 C 526.403 709.751, 531.465 713.033, 540.827 715.621 C 546.231 717.115, 547.281 717.164, 548.028 715.955 C 549.128 714.174, 551.473 704.634, 553.055 695.500 C 555.196 683.139, 555.840 682.509, 572 676.994 C 602.418 666.613, 614.805 660.270, 645.584 639.320 C 668.382 623.802, 687.239 612, 689.235 612 C 691.527 612, 691.508 612.179, 687.950 624.500 C 684.551 636.269, 684.692 648.552, 688.314 656.097 C 691.817 663.396, 696.557 668.164, 703.709 671.587 C 711.007 675.081, 720.193 675.353, 727.025 672.279 C 736.092 668.199, 754.777 649.770, 778.918 621.098 C 790.958 606.797, 794 602.431, 794 599.449 C 794 597.105, 788.900 592, 786.558 592 C 784.464 592, 780.784 595.365, 774.452 603.070 C 758.425 622.575, 751.390 630.785, 748.099 633.824 C 737.811 643.326, 721.750 653.150, 719.758 651.158 C 717.886 649.286, 722.226 638.839, 737.898 607.500 C 753.166 576.968, 753.400 576.399, 753.450 569.831 C 753.493 564.068, 753.160 562.792, 751 560.449 C 745 553.939, 733.891 552.113, 725.907 556.325 C 721.324 558.743, 715.451 565.998, 710.385 575.500 C 704.957 585.683, 701.121 588.990, 681.500 600.410 C 673.333 605.163, 669.387 606.721, 668.292 605.625 C 667.953 605.286, 668.266 601.221, 668.986 596.591 C 671.942 577.589, 665.834 563.376, 652.094 557.284 C 641.847 552.741, 632.921 553.861, 613.214 562.162 C 608.107 564.314, 603.493 565.805, 602.961 565.476 C 600.720 564.091, 603.739 556.132, 619.157 522.764 C 647.580 461.251, 657.906 442.841, 678.250 417.409 C 688.064 405.141, 693 398.164, 693 396.562 C 693 393.460, 688.739 388.425, 683.074 384.832 C 678.604 381.997, 674.854 381.453, 670 382.935 M 419.535 418.685 C 417.904 419.567, 413.854 422.394, 410.535 424.967 C 407.216 427.539, 402.250 431.346, 399.500 433.426 C 373.720 452.928, 320.791 502.618, 284.653 541.246 C 270.878 555.971, 262.608 563.184, 256 566.238 C 253.682 567.310, 244.561 568.577, 229 569.990 C 216.075 571.164, 202.587 572.851, 199.027 573.740 C 188.865 576.276, 186.155 580.339, 189.417 588.148 C 192.368 595.209, 192.829 595.337, 212.721 594.592 C 223.339 594.194, 231.064 594.304, 231.900 594.865 C 233.519 595.950, 233.730 595.566, 221.807 613.153 C 213.029 626.101, 209.481 633.270, 207.863 641.328 C 206.008 650.563, 208.934 657.585, 216.801 662.778 C 219.891 664.818, 220.599 663.851, 222.414 655.114 C 224.323 645.929, 228.742 637.297, 238.678 623.342 C 246.787 611.954, 259.970 595.100, 262.247 593.210 C 263.131 592.476, 271.540 592.046, 287.043 591.942 C 306.313 591.812, 310.550 592.031, 310.780 593.169 C 310.934 593.930, 307.490 604.891, 303.127 617.527 C 298.763 630.162, 294.443 643.425, 293.527 647 C 283.523 686.034, 287.059 706.772, 305.263 715.825 C 310.328 718.344, 313.735 719.285, 319.311 719.707 L 326.673 720.264 328.962 707.882 C 331.106 696.281, 337.902 667.188, 340.030 660.500 C 340.555 658.850, 342.402 653, 344.135 647.500 C 351.950 622.701, 361.246 600.440, 365.751 595.738 C 369.843 591.466, 374.261 590.737, 388.287 592.018 C 395.004 592.632, 403.650 593.540, 407.500 594.036 C 417.648 595.344, 429.375 595.225, 430.800 593.800 C 432.621 591.979, 432.228 584.886, 430.114 581.420 C 429.081 579.726, 426.538 577.534, 424.463 576.549 C 419.950 574.408, 404.418 572.069, 394 571.962 C 389.875 571.919, 384.700 571.568, 382.500 571.181 C 378.763 570.523, 378.480 570.234, 378.193 566.790 C 377.937 563.728, 379.947 559.076, 390.065 539.302 C 396.764 526.211, 409.232 501.775, 417.772 485 C 426.313 468.225, 435.483 450.261, 438.150 445.081 C 440.818 439.900, 443 434.928, 443 434.031 C 443 428.924, 430.411 416.959, 425.123 417.040 C 423.681 417.062, 421.166 417.802, 419.535 418.685 M 564.028 444 C 554.391 454.231, 534.913 484.440, 524.881 504.714 C 518.943 516.714, 517.854 521.763, 522.391 516.254 C 533.459 502.815, 548.920 480.442, 556.550 466.824 C 562.084 456.946, 569.089 441.758, 568.657 440.573 C 568.442 439.983, 566.359 441.525, 564.028 444 M 734.898 483.285 C 730.792 486.045, 728.841 490.985, 729.579 496.752 C 730.796 506.261, 738.363 523.359, 745.328 532.336 C 748.156 535.981, 748.534 536.149, 752.902 535.703 C 759.253 535.054, 765.361 533.346, 769.758 530.990 C 771.800 529.895, 774.040 529, 774.735 529 C 775.431 529, 776 528.605, 776 528.121 C 776 527.638, 777.410 526.659, 779.134 525.945 C 780.857 525.231, 784.345 523.003, 786.884 520.994 C 797.166 512.859, 800.127 503.873, 794.471 497.970 C 790.480 493.804, 786.053 492.642, 776.631 493.288 C 767.737 493.897, 765.612 493.216, 758.500 487.477 C 752.510 482.643, 748.628 481, 743.198 481 C 739.750 481, 737.287 481.678, 734.898 483.285 M 352.500 499.087 C 343.168 506.337, 300.668 547.839, 293.870 556.340 C 291.742 559.002, 290 562.264, 290 563.590 L 290 566 306.259 566 L 322.518 566 329.009 555.471 C 345.380 528.915, 365 494.776, 365 492.847 C 365 490.577, 360.673 492.737, 352.500 499.087 M 635.500 574.377 C 620.291 579.346, 608.964 586.193, 596.911 597.704 C 584.073 609.965, 575.526 623.522, 571.162 638.543 C 568.082 649.146, 567.611 653, 569.395 653 C 571.477 653, 586.538 645.067, 593.734 640.181 C 617.633 623.951, 635.848 601.844, 644.857 578.134 C 647.572 570.988, 646.809 570.681, 635.500 574.377 M 574 735.500 L 574 764 579.468 764 L 584.937 764 585.218 752.250 L 585.500 740.500 597.500 740.500 L 609.500 740.500 609.782 752.250 L 610.063 764 614.952 764 L 619.841 764 620.475 757.750 C 620.824 754.313, 620.972 741.600, 620.805 729.500 L 620.500 707.500 615.250 707.198 L 610 706.895 609.882 717.198 C 609.816 722.864, 609.810 727.818, 609.867 728.207 C 610.050 729.444, 603.773 730.118, 595 729.804 L 586.500 729.500 585.746 719.500 C 585.331 714, 584.783 708.938, 584.527 708.250 C 584.240 707.477, 582.142 707, 579.031 707 L 574 707 574 735.500 M 647.500 708.962 C 634.415 715.237, 628.706 731.223, 633.727 747.530 C 636.230 755.657, 643.439 762.327, 651.537 764.008 C 658.969 765.551, 665.510 764.789, 671.672 761.664 C 677.506 758.706, 679.057 757.066, 682.480 750.237 C 689.704 735.826, 684.953 716.637, 672.462 709.773 C 668.226 707.446, 666.329 707.047, 659.500 707.045 C 653.668 707.044, 650.416 707.564, 647.500 708.962 M 699.166 710.250 C 698.622 712.038, 697.905 720.250, 697.573 728.500 C 697.242 736.750, 696.686 748.112, 696.338 753.750 L 695.705 764 700.294 764 C 702.817 764, 705.097 763.652, 705.359 763.228 C 705.622 762.803, 706.164 752.883, 706.564 741.182 C 707.205 722.442, 707.483 719.946, 708.895 720.218 C 710.009 720.433, 710.804 722.355, 711.499 726.514 C 712.050 729.806, 712.797 732.953, 713.159 733.508 C 713.522 734.062, 714.143 736.312, 714.540 738.508 C 714.936 740.703, 715.600 742.950, 716.015 743.500 C 716.430 744.050, 717.081 746.075, 717.462 748 C 717.843 749.925, 718.854 754.087, 719.709 757.250 L 721.264 763 725.396 763 C 729.263 763, 729.640 762.742, 731.264 758.993 C 732.219 756.789, 733 754.495, 733 753.894 C 733 753.294, 733.618 751.384, 734.374 749.651 C 735.130 747.918, 736.284 744.475, 736.937 742 C 740.123 729.938, 743.574 720, 744.577 720 C 745.717 720, 746.986 736.628, 747.014 751.907 C 747.034 763.450, 747.312 764, 753.117 764 C 757.114 764, 757.994 763.683, 757.965 762.250 C 757.680 747.993, 755.009 708.609, 754.278 707.878 C 753.741 707.341, 750.240 707.036, 746.498 707.201 L 739.694 707.500 738.345 711.500 C 737.603 713.700, 736.570 716.400, 736.049 717.500 C 735.528 718.600, 734.395 722.425, 733.532 726 C 730.824 737.216, 727.740 747, 726.913 747 C 726.168 747, 724.622 745.112, 724.456 744 C 723.602 738.262, 722.281 732.579, 719.805 724 C 718.138 718.225, 716.535 712.600, 716.243 711.500 C 715.214 707.628, 713.917 707, 706.955 707 L 700.155 707 699.166 710.250 M 771 735.476 L 771 764 788.500 764 L 806 764 806 759.532 L 806 755.063 794.250 754.782 L 782.500 754.500 782.206 747.250 L 781.912 740 792.355 740 L 802.799 740 803.157 735.500 L 803.514 731 793.880 731 C 782.359 731, 781.771 730.564, 782.198 722.334 L 782.500 716.500 793.500 716 L 804.500 715.500 804.500 711.500 L 804.500 707.500 787.750 707.226 L 771 706.952 771 735.476 M 655 715.721 C 651.731 716.308, 647.200 720.635, 645.418 724.872 C 643.155 730.253, 643.670 743.595, 646.331 748.500 C 649.396 754.151, 656.415 757.504, 662.022 755.994 C 668.946 754.130, 672.980 748.126, 673.747 738.545 C 674.653 727.212, 670.247 718.078, 662.850 715.957 C 659.412 714.971, 659.212 714.965, 655 715.721 M 514.500 787.293 C 501.132 792.738, 491.036 800.737, 482.965 812.276 C 480.361 815.998, 479.533 818.314, 479.212 822.776 C 478.836 827.998, 479.102 828.938, 482.244 833.493 C 485.447 838.138, 490.767 842.314, 501.995 849 C 510.482 854.054, 511.045 860.766, 503.262 864.102 C 494.599 867.816, 482.803 866.238, 479.994 860.990 C 478.902 858.949, 476.529 858.335, 475.592 859.851 C 474.384 861.806, 480.474 868.913, 485.562 871.487 C 490.213 873.840, 491.461 874.049, 497.138 873.426 C 510.173 871.995, 517.164 865.799, 514.918 857.667 C 513.429 852.273, 509.637 848.417, 498.791 841.265 C 486.678 833.277, 484.624 830.888, 485.329 825.602 C 486.024 820.398, 493.588 809.472, 499.688 804.865 C 508.501 798.207, 518.439 792.676, 523.913 791.383 C 533.998 789.001, 535.202 792.562, 527.908 803.201 C 522.187 811.547, 522.846 815.396, 529.270 811.160 C 532.806 808.828, 536.630 803.651, 538.096 799.210 C 539.748 794.204, 537.851 788.490, 533.696 785.956 C 529.132 783.173, 523.680 783.553, 514.500 787.293 M 721.882 786.378 C 709.039 790.912, 697.787 799.204, 689.459 810.272 C 684.434 816.951, 683.036 822.839, 684.956 829.246 C 686.573 834.645, 694.104 841.856, 702.564 846.107 C 710.258 849.974, 714.303 854.494, 713.822 858.689 C 712.868 867.008, 689.225 868.895, 684.994 860.990 C 683.558 858.305, 681 858.439, 681 861.199 C 681 864.214, 690.403 872.952, 693.864 873.153 C 714.220 874.336, 724.699 866.708, 718.772 855.020 C 716.419 850.381, 710.938 845.566, 699.965 838.500 C 696.294 836.136, 692.891 833, 691.646 830.832 C 689.721 827.481, 689.657 826.833, 690.906 823.332 C 692.992 817.483, 699.464 808.819, 704.752 804.796 C 715.049 796.962, 725.129 791.799, 731.202 791.248 C 736.023 790.811, 737.065 791.005, 737.617 792.445 C 738.281 794.176, 735.681 799.701, 731.473 805.500 C 728.417 809.711, 727.766 811.973, 729.427 812.610 C 733.174 814.048, 740.913 806.275, 743.009 798.968 C 744.461 793.906, 742.620 788.349, 738.699 785.958 C 734.512 783.405, 729.984 783.518, 721.882 786.378 M 196.298 789.250 C 194.845 791.169, 186.492 810.477, 182.995 820 C 181.279 824.675, 179.228 829.978, 178.437 831.784 C 177.647 833.590, 177 835.805, 177 836.705 C 177 837.606, 175.808 841.303, 174.351 844.922 C 168.698 858.964, 166.571 871.238, 169.590 872.396 C 171.817 873.251, 172.781 872.421, 173.870 868.714 C 181.288 843.463, 183.841 836, 185.065 836 C 185.501 836, 186.603 838.564, 187.514 841.698 C 192.195 857.798, 204.920 873, 213.716 873 C 216.833 873, 217.105 872.765, 216.816 870.324 C 216.578 868.303, 215.397 867.078, 212 865.327 C 203.900 861.152, 196.125 849.991, 192.896 837.904 C 191.350 832.120, 191.884 830.784, 197.203 827.122 C 199.566 825.495, 202.447 823.227, 203.605 822.082 C 204.763 820.937, 206.171 820, 206.733 820 C 207.295 820, 208.373 819.253, 209.128 818.340 C 210.247 816.987, 227.260 804.141, 236.750 797.485 C 239.404 795.623, 239.608 793.750, 237.397 791.540 C 235.926 790.069, 235.558 790.083, 232.933 791.718 C 225.921 796.085, 217.608 802.221, 206.132 811.500 C 189.434 825.002, 190 824.612, 190 822.592 C 190 820.803, 192.758 813.969, 198.413 801.746 C 202.088 793.802, 202.448 792.331, 201.393 789.582 C 200.668 787.693, 197.627 787.495, 196.298 789.250 M 299.489 790.250 C 299.243 790.938, 297.050 797.187, 294.616 804.138 C 292.182 811.089, 289.739 817.619, 289.188 818.649 C 287.805 821.233, 282.296 836.837, 279.354 846.500 C 276.254 856.684, 276.337 866.333, 279.528 866.790 C 281.331 867.049, 281.763 866.055, 283.429 857.811 C 286.555 842.345, 292.668 825.031, 301.898 805.500 C 305.524 797.827, 306.427 793.666, 305.031 791.059 C 303.821 788.797, 300.199 788.269, 299.489 790.250 M 326.379 789.783 C 324.818 790.781, 320.071 800.467, 314.678 813.654 C 310.262 824.453, 305.919 838.705, 302.441 853.802 C 300.821 860.834, 300.828 861.156, 302.630 862.520 C 305.012 864.324, 307.025 864.318, 314.800 862.485 C 325.969 859.852, 333.513 854.457, 340.045 844.431 C 345.070 836.718, 345.352 832.199, 341.077 827.923 C 336.557 823.404, 331.752 823.830, 324.349 829.406 C 321.132 831.829, 317.454 835.021, 316.176 836.499 C 314.898 837.976, 313.598 838.932, 313.288 838.621 C 311.914 837.248, 318.214 819.950, 326.512 802.312 C 330.885 793.017, 330.997 792.553, 329.285 790.845 C 328.303 789.867, 326.996 789.389, 326.379 789.783 M 837.307 803.799 C 836.169 805.338, 834.005 809.051, 832.498 812.049 C 830.992 815.047, 829.570 817.706, 829.338 817.959 C 829.106 818.211, 826.802 818.661, 824.219 818.959 C 818.355 819.635, 817.105 822.443, 821.922 824.123 C 825.454 825.354, 825.534 825.675, 823.500 830.466 C 822.675 832.410, 821.328 835.585, 820.506 837.522 C 819.684 839.459, 818.516 844.234, 817.912 848.132 C 815.931 860.897, 820.818 867.982, 830.672 866.632 C 838.230 865.596, 847 860.339, 847 856.845 C 847 854.503, 845.931 854.522, 841.807 856.935 C 836.739 859.901, 829.963 861.317, 826.727 860.086 C 824.340 859.179, 824.002 858.516, 824.017 854.775 C 824.050 846.472, 830.486 827.672, 834.048 825.470 C 834.646 825.101, 838.592 824.573, 842.817 824.296 C 851.617 823.721, 853.838 822.435, 851.992 818.985 C 850.888 816.923, 850.302 816.788, 844.894 817.353 C 837.770 818.098, 837.508 817.351, 842.093 809.337 C 844.593 804.967, 844.954 803.649, 843.971 802.465 C 842.101 800.212, 839.587 800.715, 837.307 803.799 M 630.472 805.671 C 628.702 807.441, 628.686 807.763, 630.139 812.101 C 631.606 816.482, 634.811 820, 637.336 820 C 639.491 820, 645.591 813.879, 647.044 810.259 C 648.602 806.378, 647.203 804.709, 642.878 805.289 C 640.776 805.571, 637.456 805.441, 635.501 805 C 632.865 804.406, 631.564 804.579, 630.472 805.671 M 360.519 808.814 C 358.526 810.807, 362.412 821.283, 365.957 823.474 C 368.963 825.331, 378.473 815.279, 377.830 810.923 C 377.522 808.831, 376.958 808.671, 369.269 808.490 C 364.742 808.383, 360.804 808.529, 360.519 808.814 M 866.572 808.762 C 864.801 810.532, 868.108 820.712, 871.043 822.526 C 872.952 823.706, 876.556 822.133, 880.320 818.478 C 883.050 815.827, 884 814.077, 884 811.702 L 884 808.500 875.572 808.345 C 870.936 808.260, 866.886 808.447, 866.572 808.762 M 791.500 821.421 C 782.521 825.441, 773 842.743, 773 855.042 C 773 859.822, 773.411 861.139, 775.584 863.311 C 777.280 865.007, 777.965 866.536, 777.577 867.758 C 777.183 868.998, 778.325 871.414, 780.993 874.991 C 785.413 880.914, 785.743 882.138, 783.439 884.051 C 782.171 885.103, 780.955 885.110, 776.977 884.091 C 771.864 882.780, 770 883.160, 770 885.512 C 770 887.158, 775.930 888.987, 781.295 888.994 C 785.626 889.001, 790 885.484, 790 881.996 C 790 879.455, 787.707 874.832, 785.566 873.055 C 784.705 872.340, 784 870.724, 784 869.464 C 784 867.614, 785.410 866.477, 791.323 863.555 C 802.039 858.260, 810.387 849, 804.444 849 C 803.653 849, 800.262 851.020, 796.909 853.488 C 786.141 861.415, 779.394 861.919, 779.599 854.781 C 779.881 845.023, 791.183 826.455, 796.389 827.199 C 798.316 827.474, 798.475 828.043, 798.210 833.750 C 798.051 837.188, 798.289 840, 798.738 840 C 800.889 840, 804.058 836.539, 805.104 833.047 C 806.128 829.628, 806.016 828.762, 804.158 825.755 C 802.163 822.527, 798.355 819.953, 795.703 820.039 C 795.041 820.061, 793.150 820.683, 791.500 821.421 M 247.500 822.397 C 242.897 824.395, 238.274 828.703, 234.099 834.884 C 226.135 846.676, 222.331 855.317, 223.493 858.978 C 226.134 867.299, 235.234 865.325, 247.610 853.749 C 253.703 848.049, 254.381 847.666, 255.392 849.359 C 259.036 855.461, 263.305 859.946, 266.463 860.988 C 268.387 861.623, 270.420 861.859, 270.980 861.512 C 272.552 860.541, 272.187 857, 270.516 857 C 269.699 857, 267.650 855.763, 265.962 854.250 C 261.623 850.363, 260.438 844.446, 262.545 837.196 L 264.158 831.649 259.329 826.961 C 253.648 821.447, 251.551 820.638, 247.500 822.397 M 751.789 822.462 C 746.367 824.326, 741.808 828.353, 738 834.641 C 734.957 839.667, 734.460 841.406, 734.193 847.961 C 733.824 857.023, 735.739 861.390, 741.360 864.307 C 746.529 866.989, 750.764 865.951, 756.691 860.548 C 760.618 856.969, 761.266 855.925, 760.222 854.855 C 759.199 853.805, 758.602 853.792, 757.222 854.787 C 750.592 859.567, 749.392 860.079, 746.003 859.571 C 741.429 858.884, 739.997 856.728, 740.015 850.559 C 740.038 843.203, 740.886 842.287, 746.327 843.743 C 753.440 845.645, 760.771 842.343, 765.144 835.267 C 770.065 827.305, 761.524 819.115, 751.789 822.462 M 385.269 823.250 C 384.732 823.938, 383.819 826.300, 383.240 828.500 C 382.660 830.700, 381.197 835.200, 379.989 838.500 C 378.780 841.800, 377.567 847.875, 377.294 852 C 376.829 859.026, 376.943 859.588, 379.103 860.886 C 381.242 862.172, 381.615 862.027, 384.259 858.886 C 385.827 857.024, 389.072 852.534, 391.471 848.909 C 396.464 841.365, 401.780 836.380, 403.258 837.858 C 403.885 838.485, 403.402 842.254, 401.893 848.516 C 399.593 858.056, 399.587 858.225, 401.488 859.615 C 402.550 860.392, 403.882 860.873, 404.447 860.684 C 405.013 860.496, 407.538 857.316, 410.059 853.618 C 416.033 844.857, 420.367 840.543, 422.411 841.327 C 423.667 841.809, 424 843.502, 424 849.397 C 424 857.317, 425.276 860, 429.041 860 C 430.808 860, 430.904 859.337, 430.436 850.372 C 429.876 839.648, 429.168 837.648, 425.220 835.631 C 421.722 833.843, 418.918 834.885, 414.896 839.466 C 413.192 841.406, 411.394 842.743, 410.899 842.438 C 410.405 842.132, 410 839.968, 410 837.630 C 410 834.732, 409.350 832.680, 407.961 831.189 C 403.928 826.860, 399.159 828.914, 391.567 838.250 C 387.500 843.250, 385 845.241, 385 843.480 C 385 843.194, 386.125 840.192, 387.500 836.808 C 390.382 829.715, 390.657 825.800, 388.429 823.571 C 386.536 821.679, 386.499 821.675, 385.269 823.250 M 549.130 823.076 C 545.826 824.398, 540.998 828.613, 537.787 832.977 C 535.480 836.112, 534.619 836.598, 532.037 836.219 C 528.621 835.717, 528.089 837.211, 530.532 840.441 C 531.534 841.766, 532 844.881, 532 850.257 C 532 854.588, 532.463 858.997, 533.030 860.055 C 535.188 864.089, 543.135 866.321, 549 864.541 C 552.717 863.413, 559 856.977, 559 854.297 C 559 850.845, 556.329 851.442, 551.384 856 C 546.465 860.534, 543.093 861.093, 539.901 857.901 C 538.119 856.119, 537.908 855.100, 538.499 851.151 C 538.881 848.593, 539.402 846.163, 539.656 845.750 C 539.910 845.337, 542.596 845, 545.625 845 C 551.838 845, 554.100 844.085, 558.740 839.694 C 562.084 836.529, 563.674 831.698, 562.543 828.137 C 561.785 825.747, 556.091 821.972, 553.382 822.063 C 552.347 822.098, 550.433 822.554, 549.130 823.076 M 581.667 824.667 C 581.300 825.033, 581 825.970, 581 826.749 C 581 828.373, 575.909 840.741, 573.023 846.130 C 570.055 851.670, 570.044 856.807, 572.994 859.196 L 575.413 861.155 579.456 856.665 C 583.758 851.888, 600.882 840, 603.462 840 C 604.710 840, 605 841.422, 605 847.550 C 605 856.021, 606.654 860.415, 610.193 861.340 C 613.432 862.187, 614.779 860.459, 613.011 857.725 C 612.048 856.236, 611.560 852.613, 611.536 846.771 C 611.501 838.377, 611.382 837.924, 608.419 834.960 C 604.477 831.015, 602.587 831.445, 592.285 838.626 C 583.680 844.625, 582.658 844.296, 585.960 836.592 C 588.409 830.881, 588.489 829.144, 586.443 826.223 C 584.900 824.019, 582.950 823.384, 581.667 824.667 M 751.337 829.060 C 747.526 831.501, 744.645 835.632, 745.393 837.581 C 746.155 839.566, 750.879 839.349, 755.016 837.138 C 759.105 834.952, 761.004 830.914, 759.050 828.560 C 757.321 826.477, 755.149 826.618, 751.337 829.060 M 244.663 832.750 C 237.188 840.390, 228.752 855.111, 231.039 856.524 C 233.871 858.274, 250.543 843.651, 254.550 835.903 C 255.991 833.116, 255.990 832.634, 254.542 830.424 C 252.216 826.874, 249.873 827.425, 244.663 832.750 M 549.443 830.206 C 545.472 833.306, 542.070 837.227, 542.032 838.750 C 542.011 839.573, 543.570 840, 546.599 840 C 550.471 840, 551.664 839.501, 554.150 836.840 C 559.823 830.766, 555.868 825.191, 549.443 830.206 M 359.234 830.309 C 358.733 830.964, 357.253 835.550, 355.947 840.500 C 353.053 851.464, 352.762 860.185, 355.209 862.635 C 356.821 864.250, 356.977 864.192, 357.959 861.608 C 358.532 860.102, 359 857.743, 359 856.366 C 359 854.989, 360.143 849.354, 361.540 843.844 C 362.936 838.333, 363.819 833.006, 363.502 832.005 C 362.767 829.691, 360.422 828.759, 359.234 830.309 M 329 832.785 C 324.429 835.856, 315.943 844.370, 312.952 848.886 C 307.643 856.901, 309.791 859.845, 318.105 855.951 C 326.792 851.882, 336 840.267, 336 833.378 C 336 830.484, 332.824 830.215, 329 832.785 M 632.050 833.250 C 628.577 841.861, 625.145 852.172, 624.522 855.865 C 623.763 860.361, 625.235 865.001, 627.419 864.999 C 628.014 864.999, 630.695 858.327, 633.379 850.174 C 637.465 837.755, 638.068 834.996, 637.093 833.175 C 635.587 830.360, 633.201 830.395, 632.050 833.250 M 863.037 833.250 C 860.259 840.044, 856.125 853.033, 855.620 856.555 C 855.060 860.461, 856.829 865, 858.911 865 C 859.350 865, 860.737 861.513, 861.994 857.250 C 863.251 852.987, 865.342 847.082, 866.640 844.126 C 867.938 841.170, 869 837.547, 869 836.076 C 869 831.190, 864.710 829.158, 863.037 833.250" stroke="none" fill="#000000" fill-rule="evenodd"/>
</svg>